<?xml version="1.0" standalone="no"?>
<!DOCTYPE svg PUBLIC "-//W3C//DTD SVG 1.1//EN" "http://www.w3.org/Graphics/SVG/1.1/DTD/svg11.dtd" >
<svg xmlns="http://www.w3.org/2000/svg">
<metadata>Generated by IcoMoon</metadata>
<defs>
<font id="icomoon" horiz-adv-x="1024">
<font-face units-per-em="1024" ascent="960" descent="-64" />
<missing-glyph horiz-adv-x="1024" />
<glyph unicode="&#x20;" horiz-adv-x="512" d="" />
<glyph unicode="&#xe900;" glyph-name="accounts" d="M512 868.267c-243.2 0-441.6-198.4-441.6-441.6s198.4-441.6 441.6-441.6 441.6 198.4 441.6 441.6c0 243.2-198.4 441.6-441.6 441.6zM396.8 189.867l70.4 249.6c-44.8 19.2-76.8 57.6-76.8 108.8 0 64 51.2 115.2 115.2 115.2s115.2-51.2 115.2-115.2c0-44.8-25.6-83.2-57.6-102.4l64-256c6.4 0-224 0-230.4 0zM512-21.333c-249.6 0-448 198.4-448 448s198.4 448 448 448c249.6 0 448-198.4 448-448s-198.4-448-448-448zM512 855.467c-236.8 0-428.8-192-428.8-428.8s192-428.8 428.8-428.8c236.8 0 428.8 192 428.8 428.8s-192 428.8-428.8 428.8zM646.4 177.067h-262.4l70.4 256c-44.8 19.2-70.4 64-70.4 115.2 0 70.4 57.6 128 128 128s128-57.6 128-128c0-44.8-19.2-83.2-57.6-108.8l64-262.4zM409.6 196.267h211.2l-64 249.6 6.4 6.4c32 19.2 57.6 57.6 57.6 96 0 57.6-51.2 108.8-108.8 108.8-64 0-108.8-51.2-108.8-108.8 0-44.8 25.6-83.2 70.4-102.4h6.4l-70.4-249.6z" />
<glyph unicode="&#xe901;" glyph-name="add-new" d="M723.2 874.667h-480l-204.8-179.2v-716.8h480v64h-409.6v582.4h211.2v185.6h332.8v-198.4h70.4zM620.8 317.867v198.4h153.6v-198.4h211.2v-140.8h-211.2v-198.4h-153.6v198.4h-211.2v140.8z" />
<glyph unicode="&#xe902;" glyph-name="analytics" d="M147.2 413.867h102.4v-358.4h-102.4v358.4zM352 541.867h102.4v-486.4h-102.4v486.4zM563.2 669.867h102.4v-614.4h-102.4v614.4zM768 797.867h102.4v-742.4h-102.4v742.4z" />
<glyph unicode="&#xe903;" glyph-name="campaigns" d="M761.6 727.467c64 0 128 38.4 166.4 64v-524.8c-38.4-25.6-102.4-64-166.4-64s-128 19.2-166.4 44.8c-38.4 32-102.4 51.2-166.4 51.2s-128-32-166.4-64v524.8c38.4 25.6 102.4 64 166.4 64s128-19.2 166.4-44.8c44.8-32 102.4-51.2 166.4-51.2zM147.2 874.667c32 0 57.6-25.6 57.6-57.6v-838.4h-115.2v838.4c0 32 25.6 57.6 57.6 57.6z" />
<glyph unicode="&#xe904;" glyph-name="close-line" d="M896 733.867l-76.8 76.8-307.2-307.2-307.2 307.2-76.8-76.8 307.2-307.2-307.2-307.2 76.8-76.8 307.2 307.2 307.2-307.2 76.8 76.8-307.2 307.2z" />
<glyph unicode="&#xe905;" glyph-name="close" d="M512 874.667c-243.2 0-448-204.8-448-448s204.8-448 448-448c243.2 0 448 204.8 448 448s-204.8 448-448 448zM736 266.667l-64-64-160 160-160-160-64 64 160 160-160 160 64 64 160-160 160 160 64-64-160-160 160-160z" />
<glyph unicode="&#xe906;" glyph-name="collapse-in" d="M608 605.867l-70.4 70.4-249.6-249.6 249.6-249.6 70.4 70.4-128 128h480v102.4h-480l128 128zM166.4-21.333h697.6c57.6 0 102.4 44.8 102.4 102.4v198.4h-102.4v-198.4h-697.6v697.6h697.6v-198.4h96v198.4c0 51.2-44.8 96-102.4 96h-691.2c-57.6 0-102.4-44.8-102.4-96v-697.6c0-57.6 44.8-102.4 102.4-102.4z" />
<glyph unicode="&#xe907;" glyph-name="completed" d="M364.8 234.667l-230.4 230.4-70.4-76.8 300.8-294.4 595.2 595.2-70.4 70.4z" />
<glyph unicode="&#xe908;" glyph-name="controller" d="M460.8 733.867v12.8c0 19.2-19.2 38.4-38.4 38.4h-128c-25.6 0-44.8-12.8-44.8-38.4v-12.8h-153.6v-102.4h153.6v-12.8c0-19.2 19.2-38.4 38.4-38.4h128c19.2 0 38.4 19.2 38.4 38.4v12.8h467.2v102.4h-460.8zM300.8 733.867h102.4v-102.4h-102.4v102.4zM774.4 490.667c0 19.2-19.2 38.4-38.4 38.4h-128c-25.6 0-44.8-19.2-44.8-38.4v-12.8h-467.2v-102.4h467.2v-12.8c0-19.2 19.2-38.4 38.4-38.4h128c19.2 0 38.4 19.2 38.4 38.4v6.4h153.6v102.4h-153.6v19.2zM614.4 471.467h102.4v-102.4h-102.4v102.4zM460.8 228.267c0 19.2-19.2 38.4-38.4 38.4h-128c-19.2 0-38.4-19.2-38.4-38.4v-12.8h-160v-102.4h153.6v-12.8c0-19.2 19.2-38.4 38.4-38.4h128c19.2 0 38.4 19.2 38.4 38.4v12.8h467.2v102.4h-460.8v12.8zM300.8 215.467h102.4v-102.4h-102.4v102.4z" />
<glyph unicode="&#xe909;" glyph-name="dashboard" d="M512 874.667l-448-448h115.2v-448h224v339.2h224v-339.2h217.6v448h115.2z" />
<glyph unicode="&#xe90a;" glyph-name="edit" d="M64 714.667c0 6.4 0 12.8 6.4 19.2 19.2 64 70.4 108.8 140.8 108.8 153.6 0 460.8 0 460.8 0l-83.2-83.2c0 0-230.4 0-345.6 0-44.8 0-76.8-25.6-89.6-70.4 0-6.4 0-12.8 0-25.6 0-172.8 0-339.2 0-512 0-44.8 25.6-76.8 70.4-89.6 6.4 0 19.2 0 25.6 0 166.4 0 339.2 0 505.6 0 44.8 0 83.2 25.6 89.6 64 0 12.8 0 19.2 0 32 0 108.8 0 332.8 0 332.8l89.6 96c0 0 0-313.6 0-454.4 0-57.6-25.6-102.4-83.2-134.4-19.2-12.8-38.4-12.8-64-12.8-192 0-390.4 0-582.4 0-70.4 0-134.4 51.2-140.8 128 0-6.4 0-6.4 0-6.4v608zM960 746.667c-6.4-12.8-12.8-25.6-25.6-32s-19.2-19.2-32-32c-44.8 44.8-89.6 96-134.4 140.8 19.2 12.8 38.4 38.4 64 51.2h12.8c6.4-6.4 19.2-12.8 25.6-19.2 25.6-25.6 44.8-44.8 70.4-70.4 6.4-6.4 12.8-19.2 19.2-25.6v-12.8zM748.8 797.867c44.8-44.8 89.6-89.6 134.4-140.8-102.4-96-198.4-198.4-300.8-294.4-44.8 44.8-96 89.6-140.8 134.4 102.4 102.4 204.8 198.4 307.2 300.8zM364.8 285.867c19.2 64 38.4 128 57.6 192 44.8-51.2 89.6-96 134.4-140.8-64-12.8-121.6-32-192-51.2z" />
<glyph unicode="&#xe90b;" glyph-name="full-screen" d="M832 183.467l-128 134.4-83.2-83.2 134.4-128-134.4-128h339.2v339.2zM403.2 874.667h-339.2v-339.2l128 134.4 128-128 76.8 76.8-128 128zM403.2 234.667l-83.2 83.2-128-134.4-128 134.4v-339.2h339.2l-134.4 128zM960 874.667h-332.8l128-128-128-128 76.8-76.8 128 128 128-134.4z" />
<glyph unicode="&#xe90c;" glyph-name="help" d="M512 874.667c-249.6 0-448-198.4-448-448s198.4-448 448-448c249.6 0 448 198.4 448 448s-198.4 448-448 448zM608 183.467c-25.6-6.4-38.4-12.8-57.6-19.2-12.8-6.4-32-6.4-44.8-6.4-25.6 0-51.2 6.4-64 19.2s-25.6 32-25.6 51.2c0 6.4 0 19.2 0 25.6s0 19.2 6.4 25.6l25.6 102.4c0 12.8 6.4 19.2 6.4 25.6s0 19.2 0 25.6c0 12.8 0 19.2-6.4 25.6 0 6.4-12.8 6.4-25.6 6.4-6.4 0-12.8 0-25.6-6.4-6.4 0-12.8 0-19.2 0l6.4 32c19.2 6.4 38.4 12.8 51.2 19.2 19.2 6.4 32 6.4 51.2 6.4 25.6 0 51.2-6.4 64-19.2 19.2-12.8 25.6-32 25.6-51.2 0-6.4 0-12.8 0-25.6s0-19.2-6.4-32l-25.6-102.4c0-6.4-6.4-19.2-6.4-25.6 0-12.8 0-19.2 0-25.6 0-12.8 0-25.6 6.4-25.6 6.4-6.4 19.2-6.4 32-6.4 6.4 0 12.8 0 25.6 6.4 6.4 0 12.8 6.4 19.2 6.4l-12.8-32zM601.6 593.067c-12.8-12.8-32-19.2-51.2-19.2s-32 6.4-51.2 19.2c-6.4 12.8-19.2 25.6-19.2 44.8s6.4 32 19.2 44.8c12.8 12.8 32 19.2 51.2 19.2s32-6.4 51.2-19.2c12.8-12.8 19.2-25.6 19.2-44.8s-6.4-32-19.2-44.8z" />
<glyph unicode="&#xe90d;" glyph-name="image" d="M64 17.067h896v819.2h-896v-819.2zM857.6 733.867v-486.4l-160 179.2-140.8-121.6-198.4 230.4-192-262.4v460.8h691.2zM627.2 522.667c38.4 0 70.4 32 70.4 70.4s-32 70.4-70.4 70.4c-38.4 0-70.4-32-70.4-70.4s32-70.4 70.4-70.4z" />
<glyph unicode="&#xe90e;" glyph-name="inspect-item" d="M512 733.867c-204.8 0-377.6-128-448-307.2 70.4-179.2 243.2-307.2 448-307.2s377.6 128 448 307.2c-70.4 179.2-243.2 307.2-448 307.2zM512 221.867c-115.2 0-204.8 89.6-204.8 204.8s89.6 204.8 204.8 204.8c115.2 0 204.8-89.6 204.8-204.8s-89.6-204.8-204.8-204.8zM512 548.267c-70.4 0-121.6-51.2-121.6-121.6s51.2-121.6 121.6-121.6 121.6 51.2 121.6 121.6c0 70.4-51.2 121.6-121.6 121.6z" />
<glyph unicode="&#xe90f;" glyph-name="menu" d="M64 125.867h896v102.4h-896v-102.4zM64 375.467h896v102.4h-896v-102.4zM64 625.067h896v102.4h-896v-102.4z" />
<glyph unicode="&#xe910;" glyph-name="newsletter" d="M940.8 663.467l-166.4 166.4c-12.8 12.8-25.6 19.2-44.8 19.2h-582.4c-51.2-6.4-83.2-38.4-83.2-89.6v-672c0-44.8 38.4-83.2 83.2-83.2h729.6c44.8 0 83.2 38.4 83.2 83.2v537.6c0 6.4-6.4 25.6-19.2 38.4zM902.4 81.067c0-19.2-12.8-32-32-32h-723.2c-19.2 0-32 12.8-32 32v672c0 19.2 12.8 32 32 32h563.2v-115.2c0-44.8 38.4-83.2 83.2-83.2h115.2l-6.4-505.6zM819.2 618.667h-32c-32 0-51.2 25.6-51.2 51.2v115.2l166.4-166.4h-83.2zM499.2 650.667h140.8c6.4 0 12.8 6.4 12.8 12.8s-6.4 6.4-12.8 6.4h-140.8c-6.4 0-12.8-6.4-12.8-12.8-6.4 0 6.4-6.4 12.8-6.4zM499.2 561.067h140.8c6.4 0 12.8 6.4 12.8 12.8s-6.4 12.8-12.8 12.8h-140.8c-6.4 0-12.8-6.4-12.8-12.8-6.4-6.4 6.4-12.8 12.8-12.8zM480 497.067c0-6.4 6.4-12.8 12.8-12.8h339.2c6.4 0 12.8 6.4 12.8 12.8s-6.4 6.4-12.8 6.4h-332.8c-6.4 0-19.2-6.4-19.2-6.4zM838.4 337.067h-652.8c-6.4 0-12.8-6.4-12.8-12.8s6.4-12.8 12.8-12.8h646.4c6.4 0 12.8 6.4 12.8 12.8s0 12.8-6.4 12.8zM838.4 247.467h-652.8c-6.4 0-12.8-6.4-12.8-12.8s6.4-12.8 12.8-12.8h646.4c6.4 0 12.8 6.4 12.8 12.8s0 12.8-6.4 12.8zM838.4 164.267h-652.8c-6.4 0-12.8-6.4-12.8-12.8s6.4-12.8 12.8-12.8h646.4c6.4 0 12.8 6.4 12.8 12.8s0 12.8-6.4 12.8zM838.4 420.267h-652.8c-6.4 0-12.8-6.4-12.8-12.8s6.4-12.8 12.8-12.8h646.4c6.4 0 12.8 6.4 12.8 12.8s0 12.8-6.4 12.8zM198.4 477.867h198.4c19.2 0 32 12.8 32 32v160c0 19.2-12.8 32-32 32h-198.4c-19.2 0-32-12.8-32-32v-166.4c6.4-12.8 19.2-25.6 32-25.6zM230.4 650.667h140.8v-115.2h-140.8v115.2z" />
<glyph unicode="&#xe911;" glyph-name="preferences" d="M512 874.667c-249.6 0-448-198.4-448-448s198.4-448 448-448c249.6 0 448 198.4 448 448s-198.4 448-448 448zM512 68.267c-198.4 0-358.4 160-358.4 358.4s160 358.4 358.4 358.4c198.4 0 358.4-160 358.4-358.4s-160-358.4-358.4-358.4zM550.4 714.667h-70.4v-313.6l236.8-147.2 38.4 57.6-204.8 121.6z" />
<glyph unicode="&#xe912;" glyph-name="right-left" d="M588.8 36.267l390.4 390.4-390.4 390.4zM435.2 817.067l-390.4-390.4 390.4-390.4z" />
<glyph unicode="&#xe913;" glyph-name="roles" d="M633.6 426.667c89.6 0 160 70.4 160 160s-70.4 160-160 160c-89.6 0-160-70.4-160-160s70.4-160 160-160zM268.8 509.867v121.6h-83.2v-121.6h-121.6v-83.2h121.6v-121.6h83.2v121.6h121.6v83.2h-121.6zM633.6 343.467c-108.8 0-326.4-57.6-326.4-160v-83.2h652.8v83.2c0 108.8-217.6 160-326.4 160z" />
<glyph unicode="&#xe914;" glyph-name="search" d="M115.2 132.267l179.2 179.2c0 0 0 0 0 0-32 57.6-51.2 121.6-51.2 192 0 192 153.6 339.2 339.2 339.2s339.2-153.6 339.2-339.2c0-192-153.6-339.2-339.2-339.2-70.4 0-134.4 19.2-185.6 57.6 0 0 0 0 0 0l-179.2-179.2c-25.6-25.6-70.4-25.6-96 0-32 12.8-32 57.6-6.4 89.6zM588.8 279.467c121.6 0 224 102.4 224 224s-102.4 224-224 224c-121.6 0-224-102.4-224-224 0-128 96-224 224-224z" />
<glyph unicode="&#xe915;" glyph-name="settings" d="M960 477.867c0 12.8-19.2 19.2-32 19.2-38.4 0-76.8 25.6-89.6 64s-6.4 83.2 25.6 108.8c12.8 6.4 12.8 25.6 0 32-19.2 25.6-44.8 51.2-70.4 70.4-12.8 6.4-25.6 6.4-32 0-25.6-32-76.8-38.4-108.8-25.6-38.4 19.2-64 57.6-57.6 96 0 12.8-6.4 25.6-19.2 25.6-44.8 6.4-76.8 6.4-115.2 0-12.8 0-19.2-12.8-19.2-25.6 0-38.4-25.6-76.8-64-96-32-12.8-83.2 0-108.8 25.6-6.4 12.8-25.6 12.8-32 0-25.6-12.8-51.2-38.4-76.8-64-6.4-12.8-6.4-25.6 6.4-38.4 32-25.6 38.4-70.4 25.6-108.8-19.2-38.4-57.6-64-96-64-19.2 6.4-25.6-6.4-32-19.2 0-32 0-70.4 0-102.4 0-12.8 19.2-19.2 32-19.2 38.4 0 76.8-25.6 89.6-64s6.4-83.2-25.6-108.8c-6.4-6.4-12.8-25.6 0-32 19.2-25.6 44.8-51.2 70.4-70.4 12.8-6.4 25.6-6.4 32 0 32 25.6 76.8 38.4 115.2 25.6 38.4-19.2 64-57.6 57.6-96 0-12.8 6.4-25.6 19.2-25.6 19.2 0 32 0 51.2 0s32 0 51.2 0c12.8 0 25.6 12.8 19.2 25.6 0 38.4 25.6 76.8 64 96 38.4 12.8 83.2 6.4 108.8-25.6 6.4-12.8 25.6-12.8 32 0 25.6 19.2 51.2 44.8 70.4 70.4 6.4 12.8 6.4 25.6 0 32-32 25.6-38.4 70.4-25.6 108.8s51.2 57.6 89.6 57.6h6.4c12.8 0 25.6 6.4 25.6 19.2 12.8 38.4 12.8 70.4 12.8 108.8zM512 273.067c-83.2 0-147.2 64-147.2 147.2s64 147.2 147.2 147.2c83.2 0 147.2-64 147.2-147.2 0-76.8-64-147.2-147.2-147.2z" />
<glyph unicode="&#xe916;" glyph-name="top-bottom" d="M902.4 503.467l-390.4 390.4-390.4-390.4zM121.6 349.867l390.4-390.4 390.4 390.4z" />
<glyph unicode="&#xe917;" glyph-name="users" d="M512 874.667c-249.6 0-448-204.8-448-448 0-134.4 64-256 160-339.2 0 0 0 0 0 0 6.4-6.4 57.6-44.8 128-76.8 44.8-19.2 102.4-32 160-32 89.6 0 179.2 25.6 249.6 76.8 0 0 6.4 0 6.4 6.4 6.4 6.4 19.2 12.8 25.6 19.2s6.4 6.4 12.8 6.4c0 0 0 0 0 0 89.6 83.2 153.6 204.8 153.6 339.2 0 243.2-198.4 448-448 448zM800 164.267c0 0 0 6.4 0 6.4-12.8 25.6-44.8 32-70.4 44.8-32 12.8-64 25.6-89.6 38.4-6.4 0-19.2 6.4-25.6 6.4-12.8 6.4-19.2 32-25.6 38.4-6.4 0-12.8 0-12.8 0 0 19.2 12.8 19.2 12.8 32 6.4 12.8 0 25.6 6.4 38.4 6.4 6.4 12.8 6.4 19.2 12.8s6.4 19.2 6.4 25.6c0 12.8 6.4 32 0 44.8 0 12.8-6.4 12.8-6.4 25.6s6.4 44.8 6.4 57.6c0 19.2 0 19.2-6.4 44.8 0 0-6.4 19.2-12.8 25.6h-19.2l-12.8 6.4c-44.8 25.6-96 6.4-121.6-6.4-38.4-12.8-64-51.2-44.8-128 0-12.8-6.4-19.2-6.4-25.6 0-19.2 0-57.6 19.2-64 0 0 12.8-6.4 12.8 0 0-12.8 0-32 6.4-44.8s12.8-12.8 12.8-25.6h-12.8c-6.4-12.8-12.8-32-25.6-38.4-6.4 0-19.2-6.4-25.6-6.4-32-12.8-64-25.6-89.6-38.4s-57.6-12.8-70.4-44.8c0 0 0-6.4 0-6.4-64 51.2-102.4 140.8-102.4 243.2 0 217.6 172.8 390.4 390.4 390.4s390.4-172.8 390.4-390.4c0-102.4-38.4-192-102.4-262.4z" />
<glyph unicode="&#xe918;" glyph-name="down" d="M819.2 541.867l-70.4 76.8-236.8-236.8-236.8 236.8-70.4-76.8 307.2-307.2 307.2 307.2z" />
<glyph unicode="&#xe919;" glyph-name="left" d="M627.2 119.467l70.4 70.4-230.4 236.8 236.8 236.8-76.8 70.4-307.2-307.2 307.2-307.2z" />
<glyph unicode="&#xe91a;" glyph-name="right" d="M396.8 733.867l-76.8-70.4 236.8-236.8-236.8-236.8 70.4-70.4 313.6 307.2-307.2 307.2z" />
<glyph unicode="&#xe91b;" glyph-name="up" d="M204.8 311.467l70.4-76.8 236.8 236.8 236.8-236.8 70.4 70.4-307.2 313.6-307.2-307.2z" />
<glyph unicode="&#xe91c;" glyph-name="collapse-out" d="M422.4 247.467l70.4-70.4 249.6 249.6-249.6 249.6-70.4-70.4 128-128h-480v-102.4h480l-128-128zM864 874.667h-697.6c-57.6 0-102.4-44.8-102.4-102.4v-198.4h102.4v198.4h697.6v-697.6h-697.6v198.4h-96v-198.4c0-51.2 44.8-96 102.4-96h691.2c57.6 0 102.4 44.8 102.4 96v697.6c0 57.6-44.8 102.4-102.4 102.4z" />
</font>
</defs>
</svg>
