<?xml version="1.0" encoding="utf-8"?>
<!-- Generator: Adobe Illustrator 19.2.0, SVG Export Plug-In . SVG Version: 6.00 Build 0)  -->
<svg version="1.1" id="Layer_1" xmlns="http://www.w3.org/2000/svg" xmlns:xlink="http://www.w3.org/1999/xlink" x="0px" y="0px"
	 viewBox="0 0 14 14" style="enable-background:new 0 0 14 14;" xml:space="preserve">
<style type="text/css">
	.st0{fill:#40B08E;}
</style>
<g>
	<path class="st0" d="M9.8,8.5l1.1-1.1L7,3.5L3.1,7.4l1.1,1.1l2-2V14h1.6V6.5L9.8,8.5z M0,1.6l0,10.9C0,13.3,0.7,14,1.6,14h3.1v-1.6
		H1.6V1.6h10.9v10.9H9.3V14h3.1c0.9,0,1.6-0.7,1.6-1.6V1.6C14,0.7,13.3,0,12.4,0L1.6,0C0.7,0,0,0.7,0,1.6L0,1.6z M0,1.6"/>
</g>
</svg>
